<svg width="100" height="114" viewBox="0 0 100 114" fill="none" xmlns="http://www.w3.org/2000/svg">
<path d="M66.3429 54.15C66.3429 57.627 63.7714 60.477 60.5143 60.477C57.3143 60.477 54.6857 57.627 54.6857 54.15C54.6857 50.673 57.2571 47.823 60.5143 47.823C63.7714 47.823 66.3429 50.673 66.3429 54.15ZM39.6571 47.823C36.4 47.823 33.8286 50.673 33.8286 54.15C33.8286 57.627 36.4571 60.477 39.6571 60.477C42.9143 60.477 45.4857 57.627 45.4857 54.15C45.5429 50.673 42.9143 47.823 39.6571 47.823ZM100 11.742V114C85.604 101.31 90.208 105.511 73.4857 90.003L76.5143 100.548H11.7143C5.25714 100.548 0 95.304 0 88.806V11.742C0 5.244 5.25714 0 11.7143 0H88.2857C94.7429 0 100 5.244 100 11.742ZM83.7143 65.778C83.7143 47.424 75.4857 32.547 75.4857 32.547C67.2571 26.391 59.4286 26.562 59.4286 26.562L58.6286 27.474C68.3429 30.438 72.8571 34.713 72.8571 34.713C59.2833 27.2921 43.3384 27.2908 30.1714 33.06C28.0571 34.029 26.8 34.713 26.8 34.713C26.8 34.713 31.5429 30.21 41.8286 27.246L41.2571 26.562C41.2571 26.562 33.4286 26.391 25.2 32.547C25.2 32.547 16.9714 47.424 16.9714 65.778C16.9714 65.778 21.7714 74.043 34.4 74.442C34.4 74.442 36.5143 71.877 38.2286 69.711C30.9714 67.545 28.2286 62.985 28.2286 62.985C29.0692 63.5719 30.4554 64.3327 30.5714 64.41C40.2165 69.7978 53.917 71.563 66.2286 66.405C68.2286 65.664 70.4571 64.581 72.8 63.042C72.8 63.042 69.9429 67.716 62.4571 69.825C64.1714 71.991 66.2286 74.442 66.2286 74.442C78.8571 74.043 83.7143 65.778 83.7143 65.778Z" fill="#7289DA"/>
</svg>
