<svg width="52" height="52" viewBox="0 0 52 52" fill="none" xmlns="http://www.w3.org/2000/svg">
<path d="M26 52C40.3594 52 52 40.3594 52 26C52 11.6406 40.3594 0 26 0C11.6406 0 0 11.6406 0 26C0 40.3594 11.6406 52 26 52Z" fill="white"/>
<path fill-rule="evenodd" clip-rule="evenodd" d="M21.5718 26.1293V42.5798C21.5745 42.697 21.6222 42.8086 21.705 42.8915C21.7879 42.9743 21.8996 43.022 22.0167 43.0247H28.1313C28.2485 43.022 28.3601 42.9743 28.443 42.8915C28.5259 42.8086 28.5736 42.697 28.5762 42.5798V25.8345H32.9837C33.0937 25.8284 33.1982 25.7843 33.2793 25.7098C33.3604 25.6352 33.4132 25.5349 33.4286 25.4258L33.801 20.4234C33.8111 20.307 33.775 20.1912 33.7005 20.1012C33.626 20.0112 33.519 19.9541 33.4027 19.9423H28.54V16.3884C28.5379 16.1907 28.5749 15.9945 28.6486 15.8111C28.7224 15.6277 28.8316 15.4606 28.9699 15.3194C29.1083 15.1781 29.2731 15.0655 29.4549 14.988C29.6368 14.9105 29.8322 14.8695 30.0298 14.8675H33.4648C33.582 14.8649 33.6936 14.8172 33.7765 14.7343C33.8593 14.6514 33.907 14.5398 33.9097 14.4226V9.42023C33.907 9.30306 33.8593 9.19143 33.7765 9.10856C33.6936 9.02569 33.582 8.97798 33.4648 8.97534H27.6864C26.0652 8.97671 24.5107 9.62137 23.3643 10.7678C22.2179 11.9142 21.5732 13.4687 21.5718 15.0899V19.9423H18.5352C18.4181 19.9449 18.3064 19.9927 18.2236 20.0755C18.1407 20.1584 18.093 20.27 18.0903 20.3872V25.4258C18.093 25.543 18.1407 25.6546 18.2236 25.7375C18.3064 25.8203 18.4181 25.868 18.5352 25.8707H21.5718V26.1293Z" fill="#080B0C"/>
</svg>
