<svg width="52" height="52" viewBox="0 0 52 52" fill="none" xmlns="http://www.w3.org/2000/svg">
<path d="M25.9974 51.9948C40.3554 51.9948 51.9948 40.3554 51.9948 25.9974C51.9948 11.6394 40.3554 0 25.9974 0C11.6394 0 0 11.6394 0 25.9974C0 40.3554 11.6394 51.9948 25.9974 51.9948Z" fill="white"/>
<path d="M37.2064 9.85376C37.2064 9.85376 35.0856 9.85376 32.9338 13.0815C31.8683 12.0159 28.6251 12.0056 27.5544 12.0056C26.4836 12.0056 23.2352 12.0056 22.1697 13.0815C20.0179 9.85376 17.9023 9.85376 17.9023 9.85376C17.5225 10.6988 17.3236 11.6138 17.3182 12.5402C17.3129 13.4666 17.5013 14.3839 17.8713 15.2332C16.7954 16.3143 15.7143 17.3902 15.7143 22.7697C15.7143 28.1492 19.6248 30.8493 24.3111 31.3821C23.7059 31.8993 23.2352 33.5339 23.2352 34.6098C22.0827 35.1062 20.7878 35.1613 19.5974 34.7644C18.4069 34.3676 17.404 33.5466 16.7799 32.458C16.7799 32.458 15.704 30.3062 13.547 30.3062C13.547 30.3062 11.3952 30.0993 13.547 31.3821C14.4208 32.346 15.1476 33.4336 15.704 34.6098C15.704 34.6098 17.3592 39.1047 23.2766 37.8374C23.2766 39.591 23.2766 42.1462 23.2766 42.1462H31.8579V34.6098C31.8579 33.7563 31.3872 31.9045 30.782 31.3821C35.4839 30.8648 39.3892 28.1544 39.3892 22.7697C39.3892 17.385 38.3133 16.3143 37.2426 15.2384C37.6104 14.3875 37.7971 13.4693 37.7908 12.5423C37.7846 11.6153 37.5856 10.6997 37.2064 9.85376Z" fill="black"/>
</svg>
