<svg width="112" height="129" viewBox="0 0 112 129" fill="none" xmlns="http://www.w3.org/2000/svg">
<path d="M100 8.0625H12C5.375 8.0625 0 13.4795 0 20.1562V108.844C0 115.521 5.375 120.938 12 120.938H100C106.625 120.938 112 115.521 112 108.844V20.1562C112 13.4795 106.625 8.0625 100 8.0625ZM60.95 96.0949C60.95 107.08 54.55 112.094 45.225 112.094C36.8 112.094 31.925 107.71 29.425 102.394L38 97.1783C39.65 100.126 41.15 102.621 44.775 102.621C48.225 102.621 50.425 101.26 50.425 95.9437V59.8893H60.95V96.0949ZM85.85 112.094C76.075 112.094 69.75 107.408 66.675 101.26L75.25 96.2713C77.5 99.975 80.45 102.721 85.625 102.721C89.975 102.721 92.775 100.529 92.775 97.4807C92.775 93.8525 89.925 92.5676 85.1 90.426L82.475 89.2922C74.875 86.042 69.85 81.9352 69.85 73.2932C69.85 65.3314 75.875 59.2846 85.25 59.2846C91.95 59.2846 96.75 61.6277 100.2 67.7754L92 73.0664C90.2 69.8162 88.25 68.5312 85.225 68.5312C82.15 68.5312 80.2 70.4965 80.2 73.0664C80.2 76.241 82.15 77.526 86.675 79.5164L89.3 80.6502C98.25 84.5051 103.275 88.4607 103.275 97.3295C103.275 106.853 95.825 112.094 85.85 112.094Z" fill="#F0DB4F"/>
</svg>
