<svg width="52" height="52" viewBox="0 0 52 52" fill="none" xmlns="http://www.w3.org/2000/svg">
<path d="M25.9974 51.9948C40.3554 51.9948 51.9948 40.3554 51.9948 25.9974C51.9948 11.6394 40.3554 0 25.9974 0C11.6394 0 0 11.6394 0 25.9974C0 40.3554 11.6394 51.9948 25.9974 51.9948Z" fill="white"/>
<path d="M11.4625 15.3367C11.4501 14.9025 11.5314 14.4707 11.701 14.0708C11.8706 13.6709 12.1245 13.3123 12.4453 13.0194C13.1469 12.3963 14.063 12.0699 15.0005 12.109C15.9167 12.0693 16.8119 12.3906 17.4937 13.0039C17.8197 13.3136 18.076 13.6892 18.2454 14.1057C18.4149 14.5223 18.4937 14.9701 18.4765 15.4194C18.4868 15.8398 18.4072 16.2576 18.2431 16.6447C18.079 17.0318 17.8341 17.3795 17.5248 17.6644C16.8177 18.3007 15.8887 18.6333 14.9385 18.5902H14.9074C14.4512 18.6088 13.9959 18.5365 13.5679 18.3776C13.1399 18.2186 12.7477 17.9762 12.4142 17.6644C12.102 17.3643 11.856 17.0021 11.692 16.6012C11.5281 16.2004 11.4499 15.7696 11.4625 15.3367ZM11.8297 39.891V21.1455H18.0368V39.891H11.8297ZM21.5076 39.891H27.7406V29.4216C27.7211 28.9155 27.7965 28.4103 27.963 27.9319C28.2213 27.3032 28.6319 26.7486 29.1579 26.3181C29.727 25.8664 30.4389 25.6334 31.1649 25.6612C33.258 25.6612 34.3046 27.0733 34.3046 29.8975V39.891H40.5376V29.1423C40.5376 26.3836 39.8824 24.2835 38.572 22.8421C37.9147 22.1336 37.1124 21.5751 36.2198 21.2047C35.3272 20.8343 34.3652 20.6606 33.3994 20.6955C32.2687 20.6654 31.1503 20.937 30.1594 21.4825C29.1685 22.028 28.3407 22.8276 27.7613 23.799V23.8559H27.7303L27.7613 23.799V21.1455H21.5076C21.5456 21.7421 21.5645 23.6025 21.5645 26.7267C21.5645 29.851 21.5456 34.239 21.5076 39.891Z" fill="black"/>
</svg>
