<svg width="322" height="286" viewBox="0 0 322 286" fill="none" xmlns="http://www.w3.org/2000/svg">
<path d="M89.4444 250.25C75.1333 250.25 60.8222 237.738 53.6667 232.375C17.8889 207.35 7.15556 198.413 0 193.05V268.125C0 277.995 8.01087 286 17.8889 286H161C170.878 286 178.889 277.995 178.889 268.125V193.05C171.733 198.413 161 207.35 125.222 232.375C118.067 237.738 103.756 250.25 89.4444 250.25ZM161 143H17.8889C8.01087 143 0 151.005 0 160.875V169.812C14.3111 180.538 12.5222 180.537 64.4 218.075C69.7667 221.65 80.5 232.375 89.4444 232.375C98.3889 232.375 109.122 221.65 114.489 219.863C166.367 182.325 164.578 182.325 178.889 171.6V160.875C178.889 151.005 170.878 143 161 143ZM304.111 89.375H125.222C115.344 89.375 107.333 97.3796 107.333 107.25V125.125H161C179.565 125.125 194.871 139.324 196.616 157.423L196.778 157.3V232.375H304.111C313.989 232.375 322 224.37 322 214.5V107.25C322 97.3796 313.989 89.375 304.111 89.375ZM286.222 160.875H250.444V125.125H286.222V160.875ZM89.4444 107.25C89.4444 87.5372 105.494 71.5 125.222 71.5H250.444V17.875C250.444 8.00465 242.434 0 232.556 0H53.6667C43.7886 0 35.7778 8.00465 35.7778 17.875V125.125H89.4444V107.25Z" fill="#232323"/>
</svg>
