<svg width="100" height="114" viewBox="0 0 100 114" fill="none" xmlns="http://www.w3.org/2000/svg">
<path d="M50 113.109C48.5045 113.109 46.9866 112.709 45.6696 111.952L31.8973 103.825C29.8437 102.667 30.8482 102.266 31.5179 102.043C34.2634 101.086 34.8214 100.886 37.7455 99.2157C38.058 99.0375 38.4598 99.1043 38.7723 99.3047L49.3527 105.561C49.7321 105.784 50.2679 105.784 50.625 105.561L91.8527 81.8262C92.2321 81.6035 92.4777 81.1582 92.4777 80.7129V33.2426C92.4777 32.775 92.2321 32.352 91.8303 32.107L50.625 8.39414C50.2455 8.17149 49.7321 8.17149 49.3527 8.39414L8.16964 32.1293C7.76786 32.352 7.52232 32.7973 7.52232 33.2648V80.7129C7.52232 81.1582 7.76786 81.6035 8.16964 81.8039L19.4643 88.3055C25.6027 91.3559 29.3527 87.7711 29.3527 84.1418V37.2949C29.3527 36.627 29.8884 36.1149 30.558 36.1149H35.7812C36.4286 36.1149 36.9866 36.627 36.9866 37.2949V84.1641C36.9866 92.3133 32.5223 96.9891 24.7768 96.9891C22.3884 96.9891 20.5134 96.9891 15.2902 94.4063L4.48661 88.1942C1.80804 86.6578 0.15625 83.7856 0.15625 80.6906V33.2426C0.15625 30.1699 1.80804 27.2754 4.48661 25.7391L45.6696 2.0039C48.2812 0.534373 51.7411 0.534373 54.3304 2.0039L95.558 25.7613C98.2366 27.2977 99.8884 30.1699 99.8884 33.2648V80.7129C99.8884 83.7856 98.2366 86.6578 95.558 88.2164L54.3304 111.952C53.0134 112.709 51.5179 113.109 50 113.109ZM83.2812 66.3293C83.2812 57.4453 77.2545 55.0852 64.5982 53.4152C51.7857 51.7231 50.4911 50.8547 50.4911 47.8711C50.4911 45.3996 51.5848 42.1043 61.0714 42.1043C69.5312 42.1043 72.6562 43.9301 73.9509 49.6301C74.0625 50.1645 74.5536 50.5652 75.1116 50.5652H80.4687C80.8036 50.5652 81.1161 50.4317 81.3393 50.1867C81.5625 49.9418 81.6741 49.6078 81.6518 49.2738C80.8259 39.4547 74.2857 34.8902 61.0714 34.8902C49.308 34.8902 42.2991 39.8332 42.2991 48.1383C42.2991 57.1336 49.2857 59.6274 60.558 60.7406C74.0625 62.0543 75.1116 64.036 75.1116 66.6856C75.1116 71.2723 71.4062 73.2317 62.7232 73.2317C51.808 73.2317 49.4196 70.493 48.6161 65.0824C48.5268 64.5035 48.0357 64.0805 47.433 64.0805H42.0982C41.4286 64.0805 40.9152 64.6149 40.9152 65.2606C40.9152 72.1852 44.6875 80.4457 62.7455 80.4457C75.7812 80.4235 83.2812 75.2801 83.2812 66.3293V66.3293Z" fill="#3C873A"/>
</svg>
