<svg width="52" height="52" viewBox="0 0 52 52" fill="none" xmlns="http://www.w3.org/2000/svg">
<path d="M25.9974 51.9948C40.3554 51.9948 51.9948 40.3554 51.9948 25.9974C51.9948 11.6394 40.3554 0 25.9974 0C11.6394 0 0 11.6394 0 25.9974C0 40.3554 11.6394 51.9948 25.9974 51.9948Z" fill="white"/>
<path d="M41.8462 16.1695C40.6546 16.6938 39.3931 17.0422 38.1013 17.204C39.463 16.3966 40.4809 15.1174 40.9617 13.6091C39.683 14.3682 38.2832 14.9019 36.8237 15.1867C35.9329 14.235 34.7764 13.5732 33.5046 13.2875C32.2327 13.0017 30.9043 13.1052 29.692 13.5844C28.4798 14.0636 27.4397 14.8964 26.707 15.9746C25.9743 17.0528 25.5829 18.3264 25.5836 19.6299C25.5802 20.127 25.6305 20.623 25.7336 21.1093C23.1512 20.9791 20.6253 20.306 18.3205 19.134C16.0157 17.962 13.9838 16.3174 12.3573 14.3074C11.5241 15.7376 11.2667 17.4315 11.6376 19.0447C12.0085 20.6579 12.9797 22.0694 14.3539 22.9921C13.3258 22.9667 12.3192 22.6915 11.4211 22.1904V22.2421C11.4175 23.7457 11.9334 25.2044 12.8816 26.3713C13.8299 27.5382 15.1522 28.3417 16.6247 28.6458C16.07 28.7955 15.4974 28.8686 14.9229 28.863C14.5097 28.8693 14.097 28.8311 13.6919 28.7492C14.1112 30.0393 14.9205 31.1676 16.0082 31.9782C17.0959 32.7889 18.4083 33.2421 19.7645 33.2752C17.4645 35.0759 14.6266 36.0522 11.7056 36.0477C11.187 36.0501 10.6688 36.0207 10.1538 35.9598C13.1248 37.8747 16.5868 38.8879 20.1214 38.8771C32.0701 38.8771 38.6134 28.9665 38.6134 20.3851C38.6134 20.0955 38.6134 19.8213 38.5875 19.5472C39.8701 18.6288 40.9744 17.4841 41.8462 16.1695Z" fill="black"/>
</svg>
