<svg width="111" height="114" viewBox="0 0 111 114" fill="none" xmlns="http://www.w3.org/2000/svg">
<g clip-path="url(#clip0)">
<path d="M53.6605 0.0302572C65.5444 -0.373764 77.55 3.26192 87.2594 10.3492C98.9826 18.7375 107.301 31.9555 109.943 46.4031C112.089 56.8589 110.866 67.8725 107.157 77.7993C102.299 90.7912 92.6368 101.77 80.5788 108.055C72.7851 112.077 64.0566 114.465 55.2934 113.924C47.9898 114.358 40.7036 112.665 33.9884 109.771C20.4195 103.95 9.33169 92.3063 3.96692 78.2151C-0.238815 67.3969 -1.18567 55.2307 1.54922 43.9078C4.65916 30.1138 13.0582 17.71 24.4577 9.80847C33.0307 3.77876 43.2936 0.404519 53.6605 0.0302572ZM43.0975 13.4563C31.4615 16.9253 21.3826 25.5576 15.9888 36.7316C11.7945 45.1735 10.4735 54.999 11.8759 64.3443C12.1063 65.4726 12.0025 66.7553 12.7125 67.7244C17.1309 57.566 22.4275 47.3596 30.9302 40.183C39.0825 33.5593 48.9239 28.4979 59.4928 28.3016C57.3523 25.682 55.2005 23.0739 53.003 20.5013C60.5828 22.6995 68.1404 24.9868 75.6461 27.446C70.494 32.763 65.3547 38.0979 59.9884 43.1833C60.162 39.9098 60.4042 36.6306 60.4849 33.3512C56.7867 34.0166 53.3432 35.8466 50.4815 38.3178C44.2394 43.7419 40.5644 51.6308 38.2799 59.5619C35.9261 67.7128 34.9459 76.2964 35.3553 84.7856C41.205 84.0969 46.8759 82.0292 51.9867 79.0472C58.2235 75.3994 63.5021 69.6189 65.6252 62.4546C62.9368 62.9 60.2714 63.5068 57.6292 64.1771C61.8984 58.5933 66.265 53.0863 70.5232 47.4902C74.1863 53.7281 77.9301 59.9234 81.1375 66.4293C78.2882 65.2945 75.6053 63.7563 72.6979 62.7872C75.6802 75.0374 75.0227 88.2728 70.2748 99.958C83.0359 95.3901 93.4255 84.4058 97.5046 71.1401C101.139 59.5379 100.112 46.3794 94.4188 35.6569C89.601 26.3005 81.4617 18.8446 71.9251 14.912C62.8333 11.1335 52.5068 10.6997 43.0975 13.4563Z" fill="#FEFEFE"/>
</g>
<defs>
<clipPath id="clip0">
<rect width="111" height="114" fill="white"/>
</clipPath>
</defs>
</svg>
